<svg width="72" height="61" viewBox="0 0 72 61" fill="none" xmlns="http://www.w3.org/2000/svg">
<path d="M7 38.2131C30.0298 47.7919 59.2247 18.4272 70.9434 2.54749C71.9624 8.49176 70.8924 22.1636 58.4604 29.2967C60.6683 29.042 64.8293 30.4176 63.8103 37.9584C61.9421 36.5148 56.7281 34.2389 50.8178 36.6846C43.4299 39.7416 31.7501 49.5001 7 38.2131Z" fill="white"/>
<path d="M30.6921 33.6276C15.203 28.3287 13.5386 9.00133 14.6426 0C23.2023 12.2282 37.2308 22.0787 43.175 25.4755L30.6921 33.6276Z" fill="white"/>
<path fill-rule="evenodd" clip-rule="evenodd" d="M4 32.75C2.75736 32.75 1.75 33.7574 1.75 35V57C1.75 58.2426 2.75736 59.25 4 59.25H61C62.2426 59.25 63.25 58.2426 63.25 57V47C63.25 46.5858 63.5858 46.25 64 46.25C64.4142 46.25 64.75 46.5858 64.75 47V57.3256C64.75 57.4155 64.7342 57.5017 64.7052 57.5816C64.4257 59.3765 62.8733 60.75 61 60.75H4C1.92893 60.75 0.25 59.0711 0.25 57V35C0.25 32.9289 1.92893 31.25 4 31.25H20.8145C21.2287 31.25 21.5645 31.5858 21.5645 32C21.5645 32.4142 21.2287 32.75 20.8145 32.75H4Z" fill="white"/>
</svg>
